<?xml version="1.0" encoding="UTF-8" standalone="no"?>
<!DOCTYPE svg PUBLIC "-//W3C//DTD SVG 1.1//EN" "http://www.w3.org/Graphics/SVG/1.1/DTD/svg11.dtd">
<svg width="100%" height="100%" viewBox="0 0 500 500" version="1.1" xmlns="http://www.w3.org/2000/svg" xmlns:xlink="http://www.w3.org/1999/xlink" xml:space="preserve" style="fill-rule:evenodd;clip-rule:evenodd;stroke-linejoin:round;stroke-miterlimit:1.41421;">
    <g transform="matrix(0.838926,0,0,0.838926,10,-2)">
        <g>
            <g>
                <g transform="matrix(2.48266,0,0,2.48266,-390.641,-441.215)">
                    <path d="M272.215,191.865C248.212,191.865 228.755,211.323 228.755,235.325C228.755,277.113 256.54,294.703 272.215,294.703C287.889,294.703 315.675,277.113 315.675,235.325C315.675,211.323 296.217,191.865 272.215,191.865Z" style="fill:rgb(222,222,222);fill-rule:nonzero;"/>
                </g>
                <g transform="matrix(2.48266,0,0,2.48266,-390.641,-441.215)">
                    <path d="M347.976,330.359C340.626,320.604 330.318,314.202 320.61,310.033C308.771,304.948 295.946,302.565 283.061,302.565L272.215,302.565L261.368,302.565C248.483,302.565 235.659,304.948 223.819,310.033C214.112,314.202 203.803,320.604 196.453,330.359C192.342,335.814 190.198,342.505 190.198,349.336L190.198,376.633C190.198,378.146 190.883,379.579 192.077,380.508C199.245,386.08 226.767,404.855 272.215,404.855C317.663,404.855 345.185,386.08 352.352,380.508C353.546,379.579 354.232,378.146 354.232,376.633L354.232,349.336C354.232,342.505 352.087,335.814 347.976,330.359Z" style="fill:rgb(222,222,222);fill-rule:nonzero;"/>
                </g>
            </g>
        </g>
    </g>
</svg>
